# xmcd
#
# Track frame offsets:
#  150
#  14293
#  26831
#  41013
#  58148
#  70290
#  85667
#  101184
#  123858
#  139457
#  154485
#  171233
#  184859
#  205851
#
# Disc length: 2983 seconds
#
# Revision: 0
# Processed by: cddbd v1.5.1PL2 Copyright (c) Steve Scherf et al.
# Submitted via: Collectorz.com_Music_Collector 6.9
#
DISCID=cd0ba50e
DTITLE=JD Meyers - Hard Times
DYEAR=2006
DGENRE=Country
TTITLE0=I'm On A Roll
TTITLE1=But She Didn't
TTITLE2=A Thousand Miles Away
TTITLE3=Meet Me In Memphis
TTITLE4=His Latest Flame
TTITLE5=In Too Deep
TTITLE6=Hopelessly Yours
TTITLE7=Anything For You
TTITLE8=If Love Was Like A Train
TTITLE9=Sometimes
TTITLE10=This Train Keeps Passing Me By
TTITLE11=Big Highway
TTITLE12=Paint The Town Blue
TTITLE13=Hard Times
EXTD=
EXTT0=
EXTT1=
EXTT2=
EXTT3=
EXTT4=
EXTT5=
EXTT6=
EXTT7=
EXTT8=
EXTT9=
EXTT10=
EXTT11=
EXTT12=
EXTT13=
PLAYORDER=
